<svg xmlns="http://www.w3.org/2000/svg" width="1024" height="1024" viewBox="0 0 1024 1024">
<path d="M 204.01 304 C 207.752 248.541, 250.144 207.003, 303 207.003 C 323.302 207.003, 344.851 213.904, 359.994 225.256 C 363.022 227.526, 424.225 288.199, 496 360.085 C 568.497 432.693, 629.389 492.885, 633 495.507 C 663.606 517.736, 703.052 519.966, 734.925 501.269 C 742.84 496.627, 755.244 484.649, 760.967 476.122 C 766.484 467.904, 771.268 457.498, 774.14 447.47 C 776.384 439.637, 776.429 438.457, 776.785 379 C 777.174 314.097, 776.883 308.801, 772.281 297 C 768.716 287.855, 759.983 275.039, 753.23 269.041 C 745.911 262.541, 732.289 255.646, 722.432 253.453 C 707.279 250.081, 690.288 252.915, 676.165 261.17 C 672.149 263.517, 656.084 278.817, 620.968 313.74 C 589.023 345.51, 570.733 363, 569.455 363 C 567.038 363, 539 335.229, 539 332.835 C 539 330.618, 639.534 231.629, 647.323 226.177 C 670.889 209.682, 702.955 203.429, 732.587 209.55 C 773.57 218.015, 805.633 248.086, 817.818 289.487 C 818.702 292.491, 819.587 295.496, 820.471 298.5 C 820.566 363.315, 820.66 428.13, 820.755 492.944 C 821.007 665.177, 820.862 688.423, 819.484 696.444 C 807.243 767.713, 733.11 807.657, 669.148 777.447 C 664.005 775.018, 656.805 770.935, 653.148 768.375 C 648.951 765.435, 597.663 714.984, 514 631.496 C 441.125 558.774, 379.328 497.817, 376.673 496.036 C 369.484 491.214, 356.42 485.374, 348.5 483.442 C 337.199 480.686, 319.719 481.122, 308.5 483.442 C 284.035 491.676, 264.491 510.587, 254.699 536.5 C 248.368 553.251, 248.5 551.454, 248.5 621 C 248.5 642.167, 248.5 663.333, 248.5 684.5 C 249.408 687.167, 250.316 689.833, 251.224 692.5 C 255.177 704.107, 260.427 712.429, 269.519 721.5 C 278.796 730.756, 285.499 734.994, 297.739 739.344 C 305.979 742.272, 307.333 742.456, 320.5 742.427 C 333.326 742.399, 335.114 742.164, 341.817 739.627 C 356.699 733.996, 359.072 732.012, 403.927 687.705 C 427.262 664.655, 447.423 645.309, 448.73 644.713 C 450.938 643.707, 452.086 644.611, 465.052 657.552 C 473.626 666.11, 479 672.238, 479 673.459 C 479 675.899, 398.819 756.55, 398.819 756.55" fill="%232D5A27"/>
</svg>