<svg xmlns="http://www.w3.org/2000/svg" width="1024" height="1024" viewBox="0 0 1024 1024" style="fill-rule:evenodd">
<defs>
</defs>
<path d="M 0 1024 C 0 682.667, 0 341.333, 0 0 C 341.333 0, 682.667 0, 1024 0 C 1024 341.333, 1024 682.667, 1024 1024 C 682.667 1024, 341.333 1024, 0 1024 Z M 204.01 304 C 202.885 320.688, 202.877 664.573, 204.002 680 C 206.085 708.549, 215.99 731.498, 234.67 751.05 C 251.939 769.125, 269.411 779.386, 292.932 785.266 C 299.965 787.024, 304.546 787.414, 318.5 787.444 C 336.757 787.483, 341.693 786.767, 356.555 781.919 C 366.967 778.522, 378.354 772.317, 388.461 764.532 C 398.819 756.553, 479 675.899, 479 673.459 C 479 672.238, 473.626 666.11, 465.052 657.552 C 452.086 644.611, 450.938 643.707, 448.73 644.713 C 447.423 645.309, 427.262 664.655, 403.927 687.705 C 359.072 732.012, 356.699 733.996, 341.817 739.627 C 335.114 742.164, 333.326 742.399, 320.5 742.427 C 307.333 742.456, 305.979 742.272, 297.739 739.344 C 285.499 734.994, 278.796 730.756, 269.519 721.5 C 260.427 712.429, 255.177 704.107, 251.224 692.5 C 250.316 689.833, 249.408 687.167, 248.5 684.5 C 248.5 663.333, 248.5 642.167, 248.5 621 C 248.5 551.454, 248.368 553.251, 254.699 536.5 C 264.491 510.587, 284.035 491.676, 308.5 484.44 C 319.719 481.122, 337.199 480.686, 348.5 483.442 C 356.42 485.374, 369.484 491.214, 376.673 496.036 C 379.328 497.817, 441.125 558.774, 514 631.496 C 597.663 714.984, 648.951 765.435, 653.148 768.375 C 656.805 770.935, 664.005 775.018, 669.148 777.447 C 733.11 807.657, 807.243 767.713, 819.484 696.444 C 820.862 688.423, 821.007 665.177, 820.755 492.944 C 820.66 428.13, 820.566 363.315, 820.471 298.5 C 819.587 295.496, 818.702 292.491, 817.818 289.487 C 805.633 248.086, 773.57 218.015, 732.587 209.55 C 702.955 203.429, 670.889 209.682, 647.323 226.177 C 639.534 231.629, 539 330.618, 539 332.835 C 539 335.229, 567.038 363, 569.455 363 C 570.733 363, 589.023 345.51, 620.968 313.74 C 656.084 278.817, 672.149 263.517, 676.165 261.17 C 690.288 252.915, 707.279 250.081, 722.432 253.453 C 732.289 255.646, 745.911 262.541, 753.23 269.041 C 759.983 275.039, 768.716 287.855, 772.281 297 C 776.883 308.801, 777.174 314.097, 776.785 379 C 776.429 438.457, 776.384 439.637, 774.14 447.47 C 771.268 457.498, 766.484 467.904, 760.967 476.122 C 755.244 484.649, 742.84 496.627, 734.925 501.269 C 703.052 519.966, 663.606 517.736, 633 495.507 C 629.389 492.885, 568.497 432.693, 496 360.085 C 424.225 288.199, 363.022 227.526, 359.994 225.256 C 344.851 213.904, 323.302 207.003, 303 207.003 C 250.144 207.003, 207.752 248.541, 204.01 304 Z " fill="rgb(255,255,255)" />
<path d="M 204.01 304 C 207.752 248.541, 250.144 207.003, 303 207.003 C 323.302 207.003, 344.851 213.904, 359.994 225.256 C 363.022 227.526, 424.225 288.199, 496 360.085 C 568.497 432.693, 629.389 492.885, 633 495.507 C 663.606 517.736, 703.052 519.966, 734.925 501.269 C 742.84 496.627, 755.244 484.649, 760.967 476.122 C 766.484 467.904, 771.268 457.498, 774.14 447.47 C 776.384 439.637, 776.429 438.457, 776.785 379 C 777.174 314.097, 776.883 308.801, 772.281 297 C 768.716 287.855, 759.983 275.039, 753.23 269.041 C 745.911 262.541, 732.289 255.646, 722.432 253.453 C 707.279 250.081, 690.288 252.915, 676.165 261.17 C 672.149 263.517, 656.084 278.817, 620.968 313.74 C 589.023 345.51, 570.733 363, 569.455 363 C 567.038 363, 539 335.229, 539 332.835 C 539 330.618, 639.534 231.629, 647.323 226.177 C 670.889 209.682, 702.955 203.429, 732.587 209.55 C 773.57 218.015, 805.633 248.086, 817.818 289.487 C 818.702 292.491, 819.587 295.496, 820.471 298.5 C 820.566 363.315, 820.66 428.13, 820.755 492.944 C 821.007 665.177, 820.862 688.423, 819.484 696.444 C 807.243 767.713, 733.11 807.657, 669.148 777.447 C 664.005 775.018, 656.805 770.935, 653.148 768.375 C 648.951 765.435, 597.663 714.984, 514 631.496 C 441.125 558.774, 379.328 497.817, 376.673 496.036 C 369.484 491.214, 356.42 485.374, 348.5 483.442 C 337.199 480.686, 319.719 481.122, 308.5 484.44 C 284.035 491.676, 264.491 510.587, 254.699 536.5 C 248.368 553.251, 248.5 551.454, 248.5 621 C 248.5 642.167, 248.5 663.333, 248.5 684.5 C 249.408 687.167, 250.316 689.833, 251.224 692.5 C 255.177 704.107, 260.427 712.429, 269.519 721.5 C 278.796 730.756, 285.499 734.994, 297.739 739.344 C 305.979 742.272, 307.333 742.456, 320.5 742.427 C 333.326 742.399, 335.114 742.164, 341.817 739.627 C 356.699 733.996, 359.072 732.012, 403.927 687.705 C 427.262 664.655, 447.423 645.309, 448.73 644.713 C 450.938 643.707, 452.086 644.611, 465.052 657.552 C 473.626 666.11, 479 672.238, 479 673.459 C 479 675.899, 398.819 756.553, 388.461 764.532 C 378.354 772.317, 366.967 778.522, 356.555 781.919 C 341.693 786.767, 336.757 787.483, 318.5 787.444 C 304.546 787.414, 299.965 787.024, 292.932 785.266 C 269.411 779.386, 251.939 769.125, 234.67 751.05 C 215.99 731.498, 206.085 708.549, 204.002 680 C 202.877 664.573, 202.885 320.688, 204.01 304 Z M 249.47 294.5 C 248.451 299.164, 248.141 319.168, 248.079 384.366 C 248.053 412.322, 248.027 440.277, 248 468.233 C 249.25 467.104, 250.5 465.974, 251.75 464.845 C 266.945 451.118, 287.866 441.112, 309.099 437.415 C 322.969 435.001, 346.076 435.892, 359.313 439.352 C 376.179 443.76, 393.803 452.418, 406.486 462.525 C 410.052 465.366, 470.914 525.473, 541.735 596.096 C 612.556 666.718, 673.2 726.576, 676.5 729.112 C 690.117 739.58, 702.046 743.541, 717.5 742.725 C 734.242 741.842, 745.559 736.639, 758.044 724.085 C 766.777 715.305, 772.027 706.126, 775.028 694.391 C 776.91 687.03, 777 683.026, 777 606.247 C 777 579.436, 777 552.626, 777 525.815 C 775.324 527.322, 773.648 528.829, 771.971 530.336 C 747.787 552.08, 708.868 563.336, 672.974 558.969 C 647.397 555.857, 621.359 544.68, 602 528.502 C 599.525 526.434, 538.625 466.187, 466.666 394.621 C 394.707 323.054, 333.401 262.847, 330.429 260.827 C 300.083 240.194, 257.459 257.923, 249.47 294.5 Z " fill="rgb(39,64,41)" />
<path d="M 249.47 294.5 C 257.459 257.923, 300.083 240.194, 330.429 260.827 C 333.401 262.847, 394.707 323.054, 466.666 394.621 C 538.625 466.187, 599.525 526.434, 602 528.502 C 621.359 544.68, 647.397 555.857, 672.974 558.969 C 708.868 563.336, 747.787 552.08, 771.971 530.336 C 773.648 528.829, 775.324 527.322, 777 525.815 C 777 552.626, 777 579.436, 777 606.247 C 777 683.026, 776.91 687.03, 775.028 694.391 C 772.027 706.126, 766.777 715.305, 758.044 724.085 C 745.559 736.639, 734.242 741.842, 717.5 742.725 C 702.046 743.541, 690.117 739.58, 676.5 729.112 C 673.2 726.576, 612.556 666.718, 541.735 596.096 C 470.914 525.473, 410.052 465.366, 406.486 462.525 C 393.803 452.418, 376.179 443.76, 359.313 439.352 C 346.076 435.892, 322.969 435.001, 309.099 437.415 C 287.866 441.112, 266.945 451.118, 251.75 464.845 C 250.5 465.974, 249.25 467.104, 248 468.233 C 248.027 440.277, 248.053 412.322, 248.079 384.366 C 248.141 319.168, 248.451 299.164, 249.47 294.5 Z " fill="rgb(254,254,254)" />
</svg>
