<svg xmlns="http://www.w3.org/2000/svg" width="1024" height="1024" viewBox="0 0 1024 1024" style="fill-rule:evenodd">
<defs>
</defs>
<path d="M 0 1024 C 0 682.667, 0 341.333, 0 0 C 341.333 0, 682.667 0, 1024 0 C 1024 341.333, 1024 682.667, 1024 1024 C 682.667 1024, 341.333 1024, 0 1024 Z M 191.076 295.25 C 189.832 304.933, 189.782 702.869, 191.024 712.742 C 196.559 756.757, 229.963 795.224, 274.5 808.871 C 287.789 812.944, 295.021 813.983, 310.119 813.992 C 329.4 814.004, 342.829 811.159, 359.587 803.514 C 376.907 795.612, 385.498 787.885, 447.785 724.185 C 458.644 713.08, 469.503 701.975, 480.362 690.87 C 475.116 685.641, 469.871 680.413, 464.625 675.185 C 459.38 669.957, 454.135 664.728, 448.889 659.5 C 432.991 675.5, 417.093 691.5, 401.195 707.5 C 366.503 742.414, 351.93 756.421, 347.742 758.877 C 307.665 782.381, 255.239 761.893, 239.308 716.5 C 238.372 713.833, 237.436 711.167, 236.5 708.5 C 236.501 682.5, 236.501 656.5, 236.502 630.5 C 236.503 604.5, 236.503 578.5, 236.504 552.5 C 237.422 549.571, 238.341 546.641, 239.259 543.712 C 247.068 518.796, 261.566 500.91, 283.195 489.506 C 304.751 478.141, 331.298 476.859, 353.582 486.107 C 369.137 492.563, 371.29 494.516, 449.048 572.68 C 683.928 808.786, 667.745 792.915, 681.551 800.698 C 696.284 809.003, 709.585 812.713, 728.083 813.676 C 760.495 815.363, 789.339 803.078, 812.469 777.734 C 829.085 759.529, 837.554 740.633, 840.027 716.246 C 840.788 708.747, 841.008 645.515, 840.755 507 C 840.428 327.555, 840.236 307.876, 838.762 302 C 831.851 274.46, 823.664 259.522, 805.569 241.436 C 793.631 229.503, 783.448 222.455, 770.149 216.918 C 741.121 204.834, 705.528 205.21, 675.976 217.915 C 656.963 226.088, 653.982 228.647, 597.073 285.637 C 579.597 303.137, 562.122 320.638, 544.646 338.138 C 550.031 343.523, 555.416 348.908, 560.801 354.293 C 566.186 359.678, 571.571 365.063, 576.956 370.448 C 594.213 353.29, 611.471 336.132, 628.728 318.974 C 682.092 265.917, 684.524 263.787, 697.906 258.382 C 705.827 255.182, 712.515 254, 722.689 254 C 754.033 254, 781.426 274.027, 791.766 304.5 C 792.67 307.167, 793.575 309.833, 794.48 312.5 C 794.584 334.167, 794.689 355.833, 794.793 377.5 C 795.005 421.347, 794.751 444.615, 794.013 449 C 789.281 477.114, 772.415 502.358, 748.509 517.11 C 713.377 538.787, 669.066 536.235, 634.915 510.567 C 629.246 506.306, 600.047 477.688, 548.944 426.307 C 340.972 217.202, 349.587 225.452, 328.831 215.533 C 315.699 209.258, 306.589 207.63, 288.106 208.255 C 267.226 208.961, 253.623 213.262, 236.01 224.726 C 211.488 240.687, 194.701 267.035, 191.076 295.25 Z " fill="rgb(13,68,40)" />
<path d="M 191.076 295.25 C 194.701 267.035, 211.488 240.687, 236.01 224.726 C 253.623 213.262, 267.226 208.961, 288.106 208.255 C 306.589 207.63, 315.699 209.258, 328.831 215.533 C 349.587 225.452, 340.972 217.202, 548.944 426.307 C 600.047 477.688, 629.246 506.306, 634.915 510.567 C 669.066 536.235, 713.377 538.787, 748.509 517.11 C 772.415 502.358, 789.281 477.114, 794.013 449 C 794.751 444.615, 795.005 421.347, 794.793 377.5 C 794.689 355.833, 794.584 334.167, 794.48 312.5 C 793.575 309.833, 792.67 307.167, 791.766 304.5 C 781.426 274.027, 754.033 254, 722.689 254 C 712.515 254, 705.827 255.182, 697.906 258.382 C 684.524 263.787, 682.092 265.917, 628.728 318.974 C 611.471 336.132, 594.213 353.29, 576.956 370.448 C 571.571 365.063, 566.186 359.678, 560.801 354.293 C 555.416 348.908, 550.031 343.523, 544.646 338.138 C 562.122 320.638, 579.597 303.137, 597.073 285.637 C 653.982 228.647, 656.963 226.088, 675.976 217.915 C 705.528 205.21, 741.121 204.834, 770.149 216.918 C 783.448 222.455, 793.631 229.503, 805.569 241.436 C 823.664 259.522, 831.851 274.46, 838.762 302 C 840.236 307.876, 840.428 327.555, 840.755 507 C 841.008 645.515, 840.788 708.747, 840.027 716.246 C 837.554 740.633, 829.085 759.529, 812.469 777.734 C 789.339 803.078, 760.495 815.363, 728.083 813.676 C 709.585 812.713, 696.284 809.003, 681.551 800.698 C 667.745 792.915, 683.928 808.786, 449.048 572.68 C 371.29 494.516, 369.137 492.563, 353.582 486.107 C 331.298 476.859, 304.751 478.141, 283.195 489.506 C 261.566 500.91, 247.068 518.796, 239.259 543.712 C 238.341 546.641, 237.422 549.571, 236.504 552.5 C 236.503 578.5, 236.503 604.5, 236.502 630.5 C 236.501 656.5, 236.501 682.5, 236.5 708.5 C 237.436 711.167, 238.372 713.833, 239.308 716.5 C 255.239 761.893, 307.665 782.381, 347.742 758.877 C 351.93 756.421, 366.503 742.414, 401.195 707.5 C 417.093 691.5, 432.991 675.5, 448.889 659.5 C 454.135 664.728, 459.38 669.957, 464.625 675.185 C 469.871 680.413, 475.116 685.641, 480.362 690.87 C 469.503 701.975, 458.644 713.08, 447.785 724.185 C 385.498 787.885, 376.907 795.612, 359.587 803.514 C 342.829 811.159, 329.4 814.004, 310.119 813.992 C 295.021 813.983, 287.789 812.944, 274.5 808.871 C 229.963 795.224, 196.559 756.757, 191.024 712.742 C 189.782 702.869, 189.832 304.933, 191.076 295.25 Z M 236.997 301.402 C 236.586 304.206, 236.193 342.384, 236.125 386.242 C 236.083 412.822, 236.042 439.403, 236 465.983 C 237.986 464.473, 239.972 462.962, 241.958 461.452 C 256.784 450.177, 273.395 442.154, 292 437.282 C 305.205 433.824, 327.447 433.018, 342.089 435.466 C 365.173 439.326, 389.064 450.425, 408.892 466.501 C 412.527 469.447, 478.275 535.154, 555 612.515 C 658.918 717.295, 696.262 754.344, 701.407 757.767 C 725.033 773.486, 753.398 770.973, 774.022 751.333 C 782.722 743.049, 788.739 733.316, 792.159 722 C 792.914 719.5, 793.67 717, 794.425 714.5 C 794.536 685.17, 794.648 655.839, 794.759 626.509 C 794.87 597.179, 794.981 567.849, 795.092 538.518 C 793.993 539.553, 792.895 540.588, 791.796 541.623 C 775.62 556.862, 749.678 569.827, 724.688 575.162 C 710.835 578.12, 685.984 578.338, 671.5 575.63 C 650.677 571.737, 629.258 562.999, 611.5 551.154 C 598.494 542.479, 582.233 528.021, 560.001 505.368 C 532.41 477.255, 359.153 302.047, 338.009 280.877 C 321.532 264.38, 319.836 262.977, 311.454 258.916 C 303.237 254.935, 301.727 254.544, 293.101 254.163 C 281.605 253.656, 274.688 255.069, 265.685 259.763 C 250.886 267.479, 239.561 283.917, 236.997 301.402 Z " fill="rgb(255,254,250)" />
<path d="M 236.997 301.402 C 239.561 283.917, 250.886 267.479, 265.685 259.763 C 274.688 255.069, 281.605 253.656, 293.101 254.163 C 301.727 254.544, 303.237 254.935, 311.454 258.916 C 319.836 262.977, 321.532 264.38, 338.009 280.877 C 359.153 302.047, 532.41 477.255, 560.001 505.368 C 582.233 528.021, 598.494 542.479, 611.5 551.154 C 629.258 562.999, 650.677 571.737, 671.5 575.63 C 685.984 578.338, 710.835 578.12, 724.688 575.162 C 749.678 569.827, 775.62 556.862, 791.796 541.623 C 792.895 540.588, 793.993 539.553, 795.092 538.518 C 794.981 567.849, 794.87 597.179, 794.759 626.509 C 794.648 655.839, 794.536 685.17, 794.425 714.5 C 793.67 717, 792.914 719.5, 792.159 722 C 788.739 733.316, 782.722 743.049, 774.022 751.333 C 753.398 770.973, 725.033 773.486, 701.407 757.767 C 696.262 754.344, 658.918 717.295, 555 612.515 C 478.275 535.154, 412.527 469.447, 408.892 466.501 C 389.064 450.425, 365.173 439.326, 342.089 435.466 C 327.447 433.018, 305.205 433.824, 292 437.282 C 273.395 442.154, 256.784 450.177, 241.958 461.452 C 239.972 462.962, 237.986 464.473, 236 465.983 C 236.042 439.403, 236.083 412.822, 236.125 386.242 C 236.193 342.384, 236.586 304.206, 236.997 301.402 Z " fill="rgb(10,68,38)" />
</svg>
